<?xml version="1.0" encoding="UTF-8"?>
<svg xmlns="http://www.w3.org/2000/svg" xmlns:xlink="http://www.w3.org/1999/xlink" width="150px" height="150px" viewBox="0 0 345 345" version="1.1">
<g id="surface1">
<path style=" stroke:none;fill-rule:nonzero;fill:rgb(0.392157%,0%,0.784314%);fill-opacity:1;" d="M 172.5 34.324219 C 240.660156 34.324219 296.679688 87.148438 301.867188 154 L 277.863281 129.996094 L 271.53125 136.328125 L 303.613281 168.40625 L 309.941406 168.40625 L 345 133.339844 L 338.671875 127.011719 L 310.902344 154.785156 C 306.078125 82.621094 245.867188 25.375 172.5 25.375 C 95.988281 25.375 33.746094 87.621094 33.746094 164.125 L 42.699219 164.125 C 42.699219 92.554688 100.929688 34.324219 172.5 34.324219 Z M 172.5 34.324219 "/>
<path style=" stroke:none;fill-rule:nonzero;fill:rgb(0.392157%,0%,0.784314%);fill-opacity:1;" d="M 172.5 310.675781 C 104.339844 310.675781 48.320312 257.851562 43.132812 191 L 67.136719 215.003906 L 73.46875 208.671875 L 41.386719 176.59375 L 35.058594 176.59375 L 0 211.65625 L 6.328125 217.984375 L 34.097656 190.214844 C 38.921875 262.378906 99.132812 319.625 172.5 319.625 C 249.011719 319.625 311.253906 257.386719 311.253906 180.875 L 302.300781 180.875 C 302.300781 252.445312 244.070312 310.675781 172.5 310.675781 Z M 172.5 310.675781 "/>
</g>
</svg>
